# xmcd CD database file
# Generated: Fri May 31 22:22:28 2002 by KSCD
# 
# Track frame offsets:
#       150
#       18595
#       26800
#       39542
#       49327
#       59510
#       71640
#       88122
#       98077
#       110780
#       124837
#       139767
#       155420
#       166350
#       175385
#       186987
#       198800
#       209980
#       215510
#       232107
#       238122
#       245220
#       257280
#       268840
#       280065
#       292495
#       308512
#       325622
#       337715
#
# Disc length: 4752 seconds
#
# Revision: 1
# Processed by: cddbd v1.4PL0 Copyright (c) Steve Scherf et al.
# Submitted via: Kscd 1.3.2
#
DISCID=c8128e1d
DTITLE=Bill Clifton - Around The World To Poor Valley 5
DYEAR=1900
DGENRE=
TTITLE0=Bringing Mary Home
TTITLE1=Big Bill
TTITLE2=Beatle Crazy
TTITLE3=Little Girl Dressed In Blue
TTITLE4=Jug Of Punch
TTITLE5=Keep That Wheel A-Turning
TTITLE6=Baby Lie Easy
TTITLE7=Green To Gray
TTITLE8=Mother Where Is Your Daughter Tonight
TTITLE9=Prisoner's Dream
TTITLE10=Sweet Fern
TTITLE11=Forsaken Love
TTITLE12=Sales Tax On The Women
TTITLE13=Peach Pickin' Time In Georgia
TTITLE14=Hobo Bill's Last Ride
TTITLE15=Intoxicated Rat
TTITLE16=Methodist Pie
TTITLE17=When They Baptized Sister Lucy Lee
TTITLE18=When The Work's All Done This Fall
TTITLE19=Mark's Tune
TTITLE20=Happy Days
TTITLE21=Two Sweethearts
TTITLE22=The Storms Are On The Ocean
TTITLE23=Sunny Side Of The Mountain
TTITLE24=Dust On The Bible
TTITLE25=Ranger's Command
TTITLE26=Charles Guiteau
TTITLE27=Chilly Scenes Of Winter
TTITLE28=Gathering Up The Shells From The Sea-Shore
EXTD=null
EXTT0=null
EXTT1=null
EXTT2=null
EXTT3=null
EXTT4=null
EXTT5=null
EXTT6=null
EXTT7=null
EXTT8=null
EXTT9=null
EXTT10=null
EXTT11=null
EXTT12=null
EXTT13=null
EXTT14=null
EXTT15=null
EXTT16=null
EXTT17=null
EXTT18=null
EXTT19=null
EXTT20=null
EXTT21=null
EXTT22=null
EXTT23=null
EXTT24=null
EXTT25=null
EXTT26=null
EXTT27=null
EXTT28=null
PLAYORDER=
